<svg width="182" height="51" viewBox="0 0 182 51" fill="none" xmlns="http://www.w3.org/2000/svg">
<path d="M11.8082 21.5522L12.0962 20.5922H20.7842L20.5442 21.5522H11.8082ZM16.7522 20.5922C17.7762 20.5922 18.6242 20.4002 19.2962 20.0162C19.9682 19.6002 20.5282 19.0722 20.9762 18.4322C21.4562 17.7922 21.8562 17.1202 22.1762 16.4162C22.4962 15.7122 22.7842 15.0562 23.0402 14.4482H24.1442C23.5682 16.1442 23.1682 17.4722 22.9442 18.4322C22.7202 19.3602 22.4962 20.2402 22.2722 21.0722C22.1122 21.6162 21.9682 22.1762 21.8402 22.7522C21.7122 23.3282 21.5522 24.0002 21.3602 24.7682C21.2002 25.5362 21.0082 26.5122 20.7842 27.6962H19.6802C19.7442 26.9602 19.7922 26.2402 19.8242 25.5362C19.8882 24.8002 19.8402 24.1442 19.6802 23.5682C19.5202 22.9602 19.1842 22.4802 18.6722 22.1282C18.1922 21.7442 17.4402 21.5522 16.4162 21.5522L16.7522 20.5922ZM29.5202 12.8162C29.7762 10.9282 29.8402 9.44016 29.7122 8.35215C29.5842 7.23215 29.1362 6.44816 28.3682 6.00016C27.6322 5.52015 26.4482 5.28015 24.8162 5.28015H21.9842C20.9282 5.28015 20.0962 5.37615 19.4882 5.56816C18.9122 5.72816 18.4482 6.09616 18.0962 6.67216C17.7442 7.21615 17.4082 8.08015 17.0882 9.26415L10.7042 33.0722C10.3842 34.2242 10.2402 35.0882 10.2722 35.6642C10.3362 36.2402 10.6242 36.6242 11.1362 36.8162C11.6482 36.9762 12.4482 37.0562 13.5362 37.0562H16.4642C18.3842 37.0562 19.9362 36.7842 21.1202 36.2402C22.3042 35.6962 23.3122 34.8162 24.1442 33.6002C25.0082 32.3522 25.8402 30.6722 26.6402 28.5602H27.7442C27.5842 28.9762 27.4082 29.4882 27.2162 30.0962C27.0242 30.7042 26.8482 31.3442 26.6882 32.0162C26.5282 32.6242 26.3202 33.5042 26.0642 34.6562C25.8082 35.7762 25.6002 36.9442 25.4402 38.1602C23.8082 38.0962 21.9682 38.0642 19.9202 38.0642C17.8722 38.0322 16.0482 38.0162 14.4482 38.0162C13.7122 38.0162 12.7682 38.0162 11.6162 38.0162C10.4962 38.0162 9.26422 38.0322 7.92022 38.0642C6.57622 38.0642 5.21622 38.0802 3.84022 38.1122C2.49622 38.1122 1.21622 38.1282 0.00021863 38.1602L0.240219 37.2002C1.32822 37.1362 2.17622 37.0082 2.78422 36.8162C3.39222 36.6242 3.85622 36.2402 4.17622 35.6642C4.52822 35.0882 4.86422 34.2242 5.18422 33.0722L11.5682 9.26415C11.8882 8.08015 12.0162 7.21615 11.9522 6.67216C11.9202 6.09616 11.6482 5.71216 11.1362 5.52016C10.6562 5.29615 9.87222 5.16815 8.78422 5.13616L9.02422 4.17616C10.2402 4.20816 11.5202 4.24016 12.8642 4.27215C14.2402 4.27215 15.6002 4.28815 16.9442 4.32015C18.2882 4.32015 19.5202 4.32015 20.6402 4.32015C21.7922 4.32015 22.7362 4.32015 23.4722 4.32015C24.9122 4.32015 26.5122 4.32015 28.2722 4.32015C30.0642 4.28815 31.6802 4.24016 33.1202 4.17616C32.7042 5.29615 32.3362 6.36815 32.0162 7.39215C31.6962 8.38416 31.4562 9.20016 31.2962 9.84015C31.1362 10.4162 30.9922 10.9762 30.8642 11.5202C30.7682 12.0322 30.6882 12.4642 30.6242 12.8162H29.5202ZM49.8377 34.0802C49.6137 34.8162 49.5337 35.4722 49.5977 36.0482C49.6937 36.5922 50.0457 36.8642 50.6537 36.8642C51.2297 36.8642 51.7737 36.5442 52.2857 35.9042C52.8297 35.2642 53.3897 34.0802 53.9657 32.3522L54.6377 30.3842H55.5497L54.3977 33.8882C54.0137 35.1682 53.4857 36.1762 52.8137 36.9122C52.1737 37.6162 51.4697 38.1122 50.7017 38.4002C49.9657 38.6882 49.2617 38.8322 48.5897 38.8322C46.6377 38.8322 45.5497 37.9842 45.3257 36.2882C45.1977 35.7442 45.1657 35.1042 45.2297 34.3682C45.3257 33.6002 45.5177 32.7522 45.8057 31.8242L52.6217 6.14415C52.9097 5.05615 52.8617 4.25616 52.4777 3.74416C52.0937 3.23215 51.1177 2.97615 49.5497 2.97615L49.8377 1.96816C51.7897 1.93615 53.5017 1.76015 54.9737 1.44015C56.4777 1.08815 57.9017 0.608155 59.2457 0.000155449L49.8377 34.0802ZM38.8457 37.0082C39.5497 37.0082 40.3657 36.5762 41.2937 35.7122C42.2217 34.8482 43.1657 33.6482 44.1257 32.1122C45.0857 30.5762 45.9817 28.7842 46.8137 26.7362C47.6777 24.6562 48.3817 22.4482 48.9257 20.1122L48.2057 25.2962C47.0217 28.5282 45.8377 31.1362 44.6537 33.1202C43.5017 35.1042 42.3017 36.5602 41.0537 37.4882C39.8057 38.3842 38.4297 38.8322 36.9257 38.8322C35.9337 38.8322 35.0377 38.6082 34.2377 38.1602C33.4377 37.6802 32.8137 36.9762 32.3657 36.0482C31.9177 35.0882 31.6937 33.8562 31.6937 32.3522C31.6937 30.8482 31.9337 29.2162 32.4137 27.4562C32.9257 25.6962 33.6297 23.9522 34.5257 22.2242C35.4537 20.4962 36.5577 18.9282 37.8377 17.5202C39.1497 16.0802 40.6057 14.9282 42.2057 14.0642C43.8057 13.2002 45.5337 12.7682 47.3897 12.7682C48.2217 12.7682 48.9257 13.0402 49.5017 13.5842C50.1097 14.0962 50.4457 14.8642 50.5097 15.8882L50.1257 16.8482C49.9977 15.7922 49.7097 15.0402 49.2617 14.5922C48.8137 14.1122 48.2697 13.8722 47.6297 13.8722C46.5417 13.8722 45.4697 14.2722 44.4137 15.0722C43.3577 15.8722 42.3817 16.9602 41.4857 18.3362C40.5897 19.6802 39.7897 21.1842 39.0857 22.8482C38.4137 24.5122 37.8857 26.2402 37.5017 28.0322C37.1177 29.7922 36.9257 31.4882 36.9257 33.1202C36.9257 34.4322 37.0857 35.4082 37.4057 36.0482C37.7257 36.6882 38.2057 37.0082 38.8457 37.0082ZM76.8478 21.4562C75.6638 24.7842 74.5438 27.5682 73.4878 29.8082C72.4318 32.0162 71.3758 33.7922 70.3198 35.1362C69.2958 36.4482 68.2398 37.3922 67.1518 37.9682C66.0638 38.5442 64.9438 38.8322 63.7918 38.8322C62.3838 38.8322 61.3438 38.5282 60.6718 37.9202C60.0318 37.2802 59.6958 36.4162 59.6638 35.3282C59.6318 34.2402 59.8398 32.9922 60.2878 31.5842L64.9438 17.5202C65.2638 16.5602 65.3598 15.8562 65.2318 15.4082C65.1358 14.9602 64.7998 14.7362 64.2238 14.7362C63.6798 14.7362 63.1198 15.0402 62.5438 15.6482C61.9998 16.2562 61.4078 17.4562 60.7678 19.2482L60.0478 21.2162H59.1358L60.3358 17.7122C60.8158 16.3682 61.3918 15.3442 62.0638 14.6402C62.7678 13.9362 63.4878 13.4562 64.2238 13.2002C64.9918 12.9122 65.7118 12.7682 66.3838 12.7682C67.7918 12.7682 68.7678 13.0882 69.3118 13.7282C69.8558 14.3682 70.0958 15.2322 70.0318 16.3202C69.9998 17.3762 69.7598 18.5282 69.3118 19.7762L64.8478 33.2642C64.0158 35.7602 64.3038 37.0082 65.7118 37.0082C66.4158 37.0082 67.1838 36.6562 68.0158 35.9522C68.8478 35.2162 69.6958 34.1762 70.5598 32.8322C71.4558 31.4882 72.3358 29.9042 73.1998 28.0802C74.0638 26.2562 74.8958 24.2402 75.6958 22.0322C76.4958 19.8242 77.2158 17.4882 77.8558 15.0242L76.8478 21.4562ZM77.5198 34.0802C77.2958 34.9122 77.1838 35.5842 77.1838 36.0962C77.2158 36.6082 77.5358 36.8642 78.1438 36.8642C78.8158 36.8642 79.4238 36.5282 79.9678 35.8562C80.5438 35.1522 81.1038 33.9842 81.6478 32.3522L82.3678 30.3362H83.2798L82.0798 33.8882C81.6318 35.2002 81.0718 36.2082 80.3998 36.9122C79.7278 37.6162 79.0078 38.1122 78.2398 38.4002C77.5038 38.6882 76.7678 38.8322 76.0318 38.8322C75.4238 38.8322 74.8638 38.7042 74.3518 38.4482C73.8718 38.2242 73.5038 37.8882 73.2478 37.4402C72.9598 36.8642 72.8478 36.1602 72.9118 35.3282C72.9758 34.4962 73.1678 33.4242 73.4878 32.1122L78.2398 13.4402C79.2318 13.4082 80.1598 13.3442 81.0238 13.2482C81.9198 13.1522 82.7358 12.9922 83.4718 12.7682L77.5198 34.0802ZM109.831 4.70415V8.25616H100.711V38.1602H96.343V8.25616H87.175V4.70415H109.831ZM119.576 16.1282C120.344 14.6242 121.432 13.4562 122.84 12.6242C124.28 11.7922 126.024 11.3762 128.072 11.3762V15.8882H126.92C122.024 15.8882 119.576 18.5442 119.576 23.8562V38.1602H115.208V11.8562H119.576V16.1282ZM135.37 7.58416C134.538 7.58416 133.834 7.29615 133.258 6.72015C132.682 6.14415 132.394 5.44015 132.394 4.60815C132.394 3.77615 132.682 3.07215 133.258 2.49615C133.834 1.92015 134.538 1.63215 135.37 1.63215C136.17 1.63215 136.842 1.92015 137.386 2.49615C137.962 3.07215 138.25 3.77615 138.25 4.60815C138.25 5.44015 137.962 6.14415 137.386 6.72015C136.842 7.29615 136.17 7.58416 135.37 7.58416ZM137.482 11.8562V38.1602H133.114V11.8562H137.482ZM149.294 16.7042C150.158 15.2002 151.438 13.9522 153.134 12.9602C154.862 11.9362 156.862 11.4242 159.134 11.4242C161.47 11.4242 163.582 11.9842 165.47 13.1042C167.39 14.2242 168.894 15.8082 169.982 17.8562C171.07 19.8722 171.614 22.2242 171.614 24.9122C171.614 27.5682 171.07 29.9362 169.982 32.0162C168.894 34.0962 167.39 35.7122 165.47 36.8642C163.582 38.0162 161.47 38.5922 159.134 38.5922C156.894 38.5922 154.91 38.0962 153.182 37.1042C151.486 36.0802 150.19 34.8162 149.294 33.3122V50.6402H144.926V11.8562H149.294V16.7042ZM167.15 24.9122C167.15 22.9282 166.75 21.2002 165.95 19.7282C165.15 18.2562 164.062 17.1362 162.686 16.3682C161.342 15.6002 159.854 15.2162 158.222 15.2162C156.622 15.2162 155.134 15.6162 153.758 16.4162C152.414 17.1842 151.326 18.3202 150.494 19.8242C149.694 21.2962 149.294 23.0082 149.294 24.9602C149.294 26.9442 149.694 28.6882 150.494 30.1922C151.326 31.6642 152.414 32.8002 153.758 33.6002C155.134 34.3682 156.622 34.7522 158.222 34.7522C159.854 34.7522 161.342 34.3682 162.686 33.6002C164.062 32.8002 165.15 31.6642 165.95 30.1922C166.75 28.6882 167.15 26.9282 167.15 24.9122ZM178.756 38.4482C177.924 38.4482 177.22 38.1602 176.644 37.5842C176.068 37.0082 175.78 36.3042 175.78 35.4722C175.78 34.6402 176.068 33.9362 176.644 33.3602C177.22 32.7842 177.924 32.4962 178.756 32.4962C179.556 32.4962 180.228 32.7842 180.772 33.3602C181.348 33.9362 181.636 34.6402 181.636 35.4722C181.636 36.3042 181.348 37.0082 180.772 37.5842C180.228 38.1602 179.556 38.4482 178.756 38.4482Z" fill="#111827"/>
</svg>
